<svg width="504" height="98" viewBox="0 0 504 98" fill="none" xmlns="http://www.w3.org/2000/svg">
  <rect width="120" height="98" rx="4" fill="#222222" />
  <path fill-rule="evenodd" clip-rule="evenodd" d="M73.2365 24H91.7967C92.3918 24 92.8146 24.6595 92.6332 25.3048L80.1184 69.8286C79.4199 72.3137 77.3908 74 75.0989 74H56.9865L68.9203 31.5431L57.3329 24.9472C56.9184 24.7113 57.0659 24 57.5294 24H71.0405H73.2365ZM56.9865 74H38.8741C36.5822 74 34.553 72.3137 33.8545 69.8287L28 49H49.9595L56.9865 74Z" fill="white" />
  <path d="M160.586 53.4922C160.586 57.7109 161.82 60.8047 164.289 62.7734C166.773 64.7266 170.547 65.7031 175.609 65.7031C180.781 65.7031 184.594 64.5625 187.047 62.2812C189.5 60 190.727 56.8125 190.727 52.7188V30.875H181.258V52.5781C181.258 54.9844 180.758 56.6875 179.758 57.6875C178.758 58.6719 177.203 59.1641 175.094 59.1641C173.188 59.1641 171.727 58.7109 170.711 57.8047C169.711 56.8984 169.211 55.3203 169.211 53.0703V51.6172H160.586V53.4922ZM196.562 55.6953C196.562 59.0547 197.477 61.5703 199.305 63.2422C201.133 64.9141 203.578 65.75 206.641 65.75C209.156 65.75 211.289 65.2891 213.039 64.3672C214.789 63.4297 216.016 62.4297 216.719 61.3672H216.766L216.859 65H225.836V42.2656H216.648V55.6016C216.133 56.5234 215.305 57.3359 214.164 58.0391C213.023 58.7422 211.703 59.0938 210.203 59.0938C208.703 59.0938 207.586 58.7188 206.852 57.9688C206.117 57.2188 205.75 56.0938 205.75 54.5938V42.2656H196.562V55.6953ZM230.031 57.3125L230.055 58.0156C230.086 60.4844 231.398 62.3828 233.992 63.7109C236.602 65.0391 240.352 65.7031 245.242 65.7031C250.039 65.7031 253.695 64.9922 256.211 63.5703C258.742 62.1484 260.008 60.1094 260.008 57.4531C260.008 55.4375 259.18 53.8984 257.523 52.8359C255.883 51.7578 252.258 51 246.648 50.5625C243.461 50.25 241.375 49.9531 240.391 49.6719C239.406 49.375 238.914 48.9531 238.914 48.4062C238.914 47.7656 239.32 47.3047 240.133 47.0234C240.961 46.7422 242.391 46.6016 244.422 46.6016C246.578 46.6016 248.172 46.8047 249.203 47.2109C250.25 47.6172 250.773 48.2344 250.773 49.0625V49.6016H258.953V48.9219C258.938 46.5469 257.695 44.6953 255.227 43.3672C252.773 42.0391 249.336 41.3828 244.914 41.3984C240.398 41.3984 236.867 42.0391 234.32 43.3203C231.773 44.6016 230.5 46.4688 230.5 48.9219C230.5 51.0625 231.367 52.7109 233.102 53.8672C234.836 55.0078 238.438 55.7969 243.906 56.2344C246.875 56.5312 248.82 56.8281 249.742 57.125C250.68 57.4062 251.148 57.875 251.148 58.5312C251.148 59.25 250.68 59.7656 249.742 60.0781C248.805 60.3906 247.203 60.5469 244.938 60.5469C242.875 60.5469 241.242 60.3672 240.039 60.0078C238.852 59.6328 238.258 58.9141 238.258 57.8516V57.4062L230.031 57.3125ZM261.367 48.7812H282.836V42.2656H261.367V48.7812ZM266.523 57.2188C266.523 59.9531 267.414 62.0312 269.195 63.4531C270.977 64.8594 273.328 65.5625 276.25 65.5625C278.219 65.5625 279.727 65.4531 280.773 65.2344C281.82 65.0312 282.625 64.8281 283.188 64.625L282.859 58.5781C282.422 58.7031 281.938 58.8281 281.406 58.9531C280.891 59.0625 280.195 59.1172 279.32 59.1172C278.117 59.1172 277.188 58.8047 276.531 58.1797C275.875 57.5547 275.547 56.5547 275.547 55.1797V35.7734H266.781V43.5781L266.523 44V57.2188ZM286.75 65H296.055V42.2656H286.75V65ZM286.211 35.0469C286.211 36.375 286.656 37.5 287.547 38.4219C288.438 39.3281 289.711 39.7812 291.367 39.7812C293.039 39.7812 294.328 39.3281 295.234 38.4219C296.141 37.5 296.594 36.375 296.594 35.0469C296.594 33.7188 296.148 32.6172 295.258 31.7422C294.367 30.8516 293.086 30.4062 291.414 30.4062C289.742 30.4062 288.453 30.8516 287.547 31.7422C286.656 32.6328 286.211 33.7344 286.211 35.0469ZM301.844 65H311.031V51.7578C311.562 50.7891 312.406 49.9766 313.562 49.3203C314.734 48.6641 316.031 48.3359 317.453 48.3359C318.984 48.3359 320.109 48.6875 320.828 49.3906C321.562 50.0938 321.93 51.1953 321.93 52.6953V65H331.117V51.5703C331.117 48.1797 330.195 45.6484 328.352 43.9766C326.523 42.2891 324.055 41.4453 320.945 41.4453C318.445 41.4453 316.344 41.9062 314.641 42.8281C312.953 43.7344 311.727 44.7656 310.961 45.9219H310.938L310.867 42.2656H301.844V65ZM352.188 65H361.656V53.7031L389.055 30.875H377.266L361.656 44.1406V30.875H352.188V65ZM377.992 65H390.086L369.414 42.9688L362.664 48.5L377.992 65ZM391.914 65H401.125V30.1953H391.914V65ZM405.25 58.1328C405.25 60.4297 406.102 62.2109 407.805 63.4766C409.523 64.7266 411.977 65.3516 415.164 65.3516C417.992 65.3516 420.32 65 422.148 64.2969C423.992 63.5781 425.25 62.7422 425.922 61.7891C425.984 62.5234 426.086 63.1484 426.227 63.6641C426.367 64.1797 426.555 64.625 426.789 65H435.93V64.6719C435.586 64.0938 435.32 63.3984 435.133 62.5859C434.961 61.7578 434.875 60.8828 434.875 59.9609V50.0469C434.875 47.0938 433.773 44.9141 431.57 43.5078C429.383 42.1016 425.984 41.3984 421.375 41.3984C416.953 41.3984 413.5 42.0938 411.016 43.4844C408.547 44.8594 407.312 46.75 407.312 49.1562V49.625L415.75 49.6484V49.2031C415.75 48.4062 416.148 47.8047 416.945 47.3984C417.758 46.9766 419.008 46.7656 420.695 46.7656C422.555 46.7656 423.859 46.9922 424.609 47.4453C425.375 47.8984 425.758 48.5703 425.758 49.4609V51.0547L416.781 50.9844C412.922 50.9688 410.031 51.5625 408.109 52.7656C406.203 53.9688 405.25 55.7578 405.25 58.1328ZM414.32 57.4297C414.32 56.5547 414.719 55.9375 415.516 55.5781C416.328 55.2188 417.617 55.0391 419.383 55.0391L425.805 55.0859V56.1641C425.805 57.4609 425.109 58.4766 423.719 59.2109C422.328 59.9453 420.734 60.3125 418.938 60.3125C417.281 60.3125 416.094 60.0781 415.375 59.6094C414.672 59.125 414.32 58.3984 414.32 57.4297ZM438.859 58.1328C438.859 60.4297 439.711 62.2109 441.414 63.4766C443.133 64.7266 445.586 65.3516 448.773 65.3516C451.602 65.3516 453.93 65 455.758 64.2969C457.602 63.5781 458.859 62.7422 459.531 61.7891C459.594 62.5234 459.695 63.1484 459.836 63.6641C459.977 64.1797 460.164 64.625 460.398 65H469.539V64.6719C469.195 64.0938 468.93 63.3984 468.742 62.5859C468.57 61.7578 468.484 60.8828 468.484 59.9609V50.0469C468.484 47.0938 467.383 44.9141 465.18 43.5078C462.992 42.1016 459.594 41.3984 454.984 41.3984C450.562 41.3984 447.109 42.0938 444.625 43.4844C442.156 44.8594 440.922 46.75 440.922 49.1562V49.625L449.359 49.6484V49.2031C449.359 48.4062 449.758 47.8047 450.555 47.3984C451.367 46.9766 452.617 46.7656 454.305 46.7656C456.164 46.7656 457.469 46.9922 458.219 47.4453C458.984 47.8984 459.367 48.5703 459.367 49.4609V51.0547L450.391 50.9844C446.531 50.9688 443.641 51.5625 441.719 52.7656C439.812 53.9688 438.859 55.7578 438.859 58.1328ZM447.93 57.4297C447.93 56.5547 448.328 55.9375 449.125 55.5781C449.938 55.2188 451.227 55.0391 452.992 55.0391L459.414 55.0859V56.1641C459.414 57.4609 458.719 58.4766 457.328 59.2109C455.938 59.9453 454.344 60.3125 452.547 60.3125C450.891 60.3125 449.703 60.0781 448.984 59.6094C448.281 59.125 447.93 58.3984 447.93 57.4297ZM472.609 57.3125L472.633 58.0156C472.664 60.4844 473.977 62.3828 476.57 63.7109C479.18 65.0391 482.93 65.7031 487.82 65.7031C492.617 65.7031 496.273 64.9922 498.789 63.5703C501.32 62.1484 502.586 60.1094 502.586 57.4531C502.586 55.4375 501.758 53.8984 500.102 52.8359C498.461 51.7578 494.836 51 489.227 50.5625C486.039 50.25 483.953 49.9531 482.969 49.6719C481.984 49.375 481.492 48.9531 481.492 48.4062C481.492 47.7656 481.898 47.3047 482.711 47.0234C483.539 46.7422 484.969 46.6016 487 46.6016C489.156 46.6016 490.75 46.8047 491.781 47.2109C492.828 47.6172 493.352 48.2344 493.352 49.0625V49.6016H501.531V48.9219C501.516 46.5469 500.273 44.6953 497.805 43.3672C495.352 42.0391 491.914 41.3828 487.492 41.3984C482.977 41.3984 479.445 42.0391 476.898 43.3203C474.352 44.6016 473.078 46.4688 473.078 48.9219C473.078 51.0625 473.945 52.7109 475.68 53.8672C477.414 55.0078 481.016 55.7969 486.484 56.2344C489.453 56.5312 491.398 56.8281 492.32 57.125C493.258 57.4062 493.727 57.875 493.727 58.5312C493.727 59.25 493.258 59.7656 492.32 60.0781C491.383 60.3906 489.781 60.5469 487.516 60.5469C485.453 60.5469 483.82 60.3672 482.617 60.0078C481.43 59.6328 480.836 58.9141 480.836 57.8516V57.4062L472.609 57.3125Z" fill="#222222" />
</svg>